<svg id="Layer_1" data-name="Layer 1" xmlns="http://www.w3.org/2000/svg" viewBox="0 0 100 60"><defs><style>.cls-1{fill:#1f1a17;fill-rule:evenodd;}</style></defs><path class="cls-1" d="M43.51,44.41a.84.84,0,0,0-.31,1.14.85.85,0,0,0,1.15.31.84.84,0,0,0-.84-1.45M37.45,50.5a.85.85,0,0,0-.31,1.15.84.84,0,1,0,.31-1.15Zm25.1,0a.85.85,0,0,1,.31,1.15.84.84,0,1,1-.31-1.15Zm-6.06-6.09a.84.84,0,0,1,.31,1.14.85.85,0,0,1-1.15.31.84.84,0,0,1,.84-1.45Zm-6.92-6.09a.83.83,0,1,0,1.15.3A.84.84,0,0,0,49.57,38.32ZM50,43.79c4.62,2,8,11.87,11.9,13.21,2.64.91,2.09-2.55,5.13-5.43C61.67,46.28,55.56,40,50.18,34.63L50,34.42l0,0,0,0-.15.21C44.44,40,38.33,46.28,33,51.57c3,2.88,2.49,6.34,5.12,5.43C42,55.66,45.38,45.76,50,43.79ZM79,6.3a1.6,1.6,0,0,0-1,2,1.59,1.59,0,0,0,3-1A1.59,1.59,0,0,0,79,6.3ZM56.11,29.1C62.71,22.73,73,10,77.75,4.5,81.36.36,80.67,4.84,86.63,9c7.07,6.07,9.85,4.19,7.18,8.1C89.51,23.37,76,39.17,69,41.59c-3-3.32-7.1-9.22-12.84-7.22-.57.49-1.34,1.1-1.91,1.58h0l-.12.12a8.7,8.7,0,0,1-2.49-2.84C53.09,31.91,54.72,30.44,56.11,29.1ZM21,6.3a1.6,1.6,0,0,1,1,2,1.59,1.59,0,0,1-3-1A1.59,1.59,0,0,1,21,6.3ZM43.89,29.1C37.29,22.73,27,10,22.25,4.5,18.64.36,19.33,4.84,13.37,9c-7.07,6.07-9.85,4.19-7.18,8.1C10.49,23.37,24,39.17,31,41.59c3.05-3.32,7.1-9.22,12.84-7.22.57.49,1.34,1.1,1.91,1.58h0l.12.12a8.7,8.7,0,0,0,2.49-2.84C46.91,31.91,45.28,30.44,43.89,29.1Z"/></svg>